<svg xmlns="http://www.w3.org/2000/svg" viewBox="0 0 16 16" id="Unity--Streamline-Font-Awesome" height="16" width="16">
  <desc fill="#696968">
    Unity Streamline Icon: https://streamlinehq.com
  </desc>
<!--! Font Awesome Free 6.5.2 by @fontawesome - https://fontawesome.com License - https://fontawesome.com/license/free (Icons: CC BY 4.0, Fonts: SIL OFL 1.1, Code: MIT License) Copyright 2024 Fonticons, Inc.-->
  <path d="m8.599728571428571 2.965332142857143 2.453432142857143 1.4326785714285715c0.08819999999999999 0.05028571428571428 0.09141428571428571 0.18984285714285712 0 0.2401285714285714l-2.9152571428571425 1.7036392857142857c-0.08819999999999999 0.05193928571428571 -0.1924142857142857 0.048692857142857135 -0.2742142857142857 0l-2.9152571428571425 -1.7036392857142857c-0.08979285714285715 -0.048660714285714286 -0.09138214285714286 -0.1914642857142857 0 -0.2401285714285714l2.4518392857142857 -1.4326785714285715V0.16L1.14 3.8171464285714283v7.314321428571428l2.400517857142857 -1.4018607142857142v-2.8653642857142856c-0.0016035714285714286 -0.10222857142857142 0.11706071428571427 -0.1752392857142857 0.20525714285714286 -0.12008214285714285l2.9152714285714283 1.7036392857142857c0.08819999999999999 0.05193928571428571 0.13790357142857143 0.144425 0.13790357142857143 0.24016071428571428v3.405653571428571c0.0015928571428571428 0.10222499999999998 -0.11707857142857142 0.17523571428571427 -0.20527857142857142 0.12005l-2.4534214285714286 -1.432667857142857 -2.4005214285714285 1.401857142857143L8 15.839999999999998l6.2602714285714285 -3.657146428571428 -2.400510714285714 -1.401857142857143 -2.4534285714285713 1.432667857142857c-0.08660714285714284 0.05356071428571428 -0.20846428571428569 -0.0162 -0.20528214285714283 -0.12005v-3.405653571428571c0 -0.10222499999999998 0.05613571428571429 -0.19309285714285712 0.13790714285714287 -0.24016071428571428l2.915285714285714 -1.7036392857142857c0.086575 -0.05353214285714285 0.20843214285714284 0.014607142857142855 0.20524642857142855 0.12008214285714285v2.8653642857142856l2.400510714285714 1.4018607142857142v-7.314321428571428L8.599728571428571 0.16v2.805332142857143Z" fill="#696968" stroke-width="0.0357"/>
</svg>